<svg width="25" height="25" viewBox="0 0 25 25" fill="none" xmlns="http://www.w3.org/2000/svg">
<path d="M20.7292 2.40311C20.6924 2.30873 20.628 2.22766 20.5444 2.1705C20.4607 2.11334 20.3618 2.08276 20.2605 2.08276C20.1592 2.08276 20.0603 2.11334 19.9766 2.1705C19.893 2.22766 19.8285 2.30873 19.7917 2.40311L19.3438 3.54373C19.3189 3.60833 19.2809 3.66706 19.2321 3.71619C19.1834 3.76532 19.1249 3.80378 19.0605 3.82915L17.924 4.27915C17.8299 4.31664 17.7492 4.3815 17.6924 4.46534C17.6355 4.54919 17.6051 4.64816 17.6051 4.74946C17.6051 4.85077 17.6355 4.94974 17.6924 5.03359C17.7492 5.11743 17.8299 5.18229 17.924 5.21978L19.0605 5.66978C19.1248 5.69503 19.1832 5.73334 19.232 5.78228C19.2807 5.83123 19.3188 5.88975 19.3438 5.95415L19.7917 7.09374C19.9605 7.52082 20.5626 7.52082 20.7292 7.09374L21.1772 5.95311C21.2023 5.88861 21.2405 5.83002 21.2895 5.78107C21.3385 5.73212 21.397 5.69387 21.4615 5.66873L22.598 5.21874C22.6921 5.18125 22.7728 5.11639 22.8297 5.03254C22.8865 4.9487 22.9169 4.84973 22.9169 4.74842C22.9169 4.64712 22.8865 4.54815 22.8297 4.4643C22.7728 4.38046 22.6921 4.3156 22.598 4.27811L21.4615 3.82811C21.3969 3.80286 21.3383 3.76445 21.2893 3.71531C21.2404 3.66618 21.2022 3.60739 21.1772 3.54269L20.7292 2.40311ZM16.7011 8.46874C16.6643 8.37436 16.5999 8.29328 16.5163 8.23613C16.4326 8.17897 16.3337 8.14839 16.2324 8.14839C16.1311 8.14839 16.0321 8.17897 15.9485 8.23613C15.8649 8.29328 15.8004 8.37436 15.7636 8.46874L15.6001 8.88436C15.5751 8.94876 15.537 9.00729 15.4882 9.05623C15.4394 9.10518 15.3811 9.14348 15.3167 9.16874L14.9022 9.33332C14.8081 9.37081 14.7274 9.43566 14.6705 9.51951C14.6136 9.60335 14.5833 9.70233 14.5833 9.80363C14.5833 9.90493 14.6136 10.0039 14.6705 10.0878C14.7274 10.1716 14.8081 10.2365 14.9022 10.2739L15.3167 10.4375C15.447 10.4896 15.549 10.5917 15.6001 10.7229L15.7636 11.1385C15.9313 11.5656 16.5334 11.5656 16.7011 11.1385L16.8647 10.7219C16.8897 10.6575 16.9278 10.5989 16.9765 10.55C17.0253 10.501 17.0837 10.4627 17.148 10.4375L17.5626 10.2739C17.6567 10.2365 17.7374 10.1716 17.7942 10.0878C17.8511 10.0039 17.8815 9.90493 17.8815 9.80363C17.8815 9.70233 17.8511 9.60335 17.7942 9.51951C17.7374 9.43566 17.6567 9.37081 17.5626 9.33332L17.148 9.16874C17.0837 9.14348 17.0253 9.10518 16.9765 9.05623C16.9278 9.00729 16.8897 8.94876 16.8647 8.88436L16.7011 8.46874Z" fill="#1F1F1F"/>
<path d="M12.4999 22.9166C18.253 22.9166 22.9166 18.2531 22.9166 12.5C22.9166 12.0177 22.1937 11.9375 21.9447 12.351C21.4137 13.2305 20.6895 13.9777 19.827 14.5359C18.9645 15.0941 17.9863 15.4487 16.9664 15.5728C15.9466 15.6969 14.9118 15.5873 13.9406 15.2524C12.9694 14.9174 12.0871 14.3657 11.3606 13.6393C10.6342 12.9128 10.0825 12.0305 9.74755 11.0593C9.41255 10.0881 9.30297 9.05334 9.4271 8.03349C9.55124 7.01363 9.90583 6.0354 10.464 5.17288C11.0222 4.31036 11.7694 3.58618 12.6489 3.05519C13.0624 2.80519 12.9822 2.08331 12.4999 2.08331C6.74679 2.08331 2.08325 6.74686 2.08325 12.5C2.08325 18.2531 6.74679 22.9166 12.4999 22.9166Z" fill="#1F1F1F"/>
</svg>
